<?xml version="1.0" standalone="no"?>
<!DOCTYPE svg PUBLIC "-//W3C//DTD SVG 20010904//EN"
 "http://www.w3.org/TR/2001/REC-SVG-20010904/DTD/svg10.dtd">
<svg version="1.0" xmlns="http://www.w3.org/2000/svg"
 width="260.000000pt" height="260.000000pt" viewBox="0 0 260.000000 260.000000"
 preserveAspectRatio="xMidYMid meet">
<metadata>
Created by potrace 1.14, written by Peter Selinger 2001-2017
</metadata>
<g transform="translate(0.000000,260.000000) scale(0.100000,-0.100000)"
fill="#000000" stroke="none">
<path d="M3 1690 l0 -110 149 0 c147 0 148 0 149 -22 0 -13 1 -187 2 -388 l2
-365 133 -3 132 -2 0 390 0 390 150 0 150 0 0 110 0 110 -434 0 -434 0 1 -110z"/>
<path d="M971 1301 l0 -500 133 0 c99 -1 135 2 138 11 2 7 3 95 3 196 l-1 182
193 0 193 0 1 23 c0 12 1 61 2 110 l2 87 -196 0 -196 0 1 83 1 82 215 5 215 5
0 105 0 105 -352 3 -352 2 0 -499z"/>
<path d="M1775 1303 l0 -498 135 0 135 0 2 155 c1 85 2 159 2 163 1 4 22 7 47
5 l46 -3 87 -162 86 -163 143 1 c78 0 142 4 142 9 0 5 -43 88 -96 185 -53 97
-94 178 -92 179 1 1 19 13 38 27 49 33 67 56 97 119 33 69 37 184 8 270 -24
73 -99 148 -180 181 -57 22 -74 24 -330 27 l-270 3 0 -498z m435 273 c14 -3
37 -19 53 -36 22 -24 27 -40 27 -80 0 -85 -48 -117 -175 -116 l-70 1 0 115 c0
93 3 116 15 121 16 6 107 3 150 -5z"/>
</g>
</svg>
